<svg width="97" height="96" viewBox="0 0 97 96" fill="none" xmlns="http://www.w3.org/2000/svg">
<g clip-path="url(#clip0_2759_4625)">
<circle opacity="0.12" cx="48.5" cy="48.0001" r="48" fill="#DB524E"/>
<path fill-rule="evenodd" clip-rule="evenodd" d="M31.5054 60.1387C30.1646 61.4795 30.1646 63.6534 31.5054 64.9942C32.8462 66.335 35.0201 66.335 36.3609 64.9942L48.4995 52.8556L60.6386 64.9947C61.9794 66.3355 64.1533 66.3355 65.4941 64.9947C66.8349 63.6539 66.8349 61.48 65.4941 60.1392L53.355 48.0001L65.4939 35.8612C66.8347 34.5204 66.8347 32.3465 65.4939 31.0057C64.1531 29.6649 61.9792 29.6649 60.6384 31.0057L48.4995 43.1446L36.3611 31.0062C35.0203 29.6654 32.8464 29.6654 31.5056 31.0062C30.1648 32.347 30.1648 34.5209 31.5056 35.8617L43.644 48.0001L31.5054 60.1387Z" fill="#C7302B"/>
</g>
<defs>
<clipPath id="clip0_2759_4625">
<rect width="96" height="96" fill="white" transform="translate(0.5 0.00012207)"/>
</clipPath>
</defs>
</svg>
